<svg xmlns="http://www.w3.org/2000/svg" viewBox="0 0 720 560" font-family="system-ui,Segoe UI,Roboto,sans-serif">
<rect width="720" height="560" fill="#ffffff"/>
<text x="300" y="34" text-anchor="middle" font-size="22" font-weight="700" fill="#1a1a1a">4 · Governed Chaos & Multi-Substrate</text>
<text x="300" y="56" text-anchor="middle" font-size="13" fill="#666">the category binary languages don't play in</text>
<polygon points="300.0,258.0 336.4,279.0 336.4,321.0 300.0,342.0 263.6,321.0 263.6,279.0" fill="none" stroke="#e3e3e3" stroke-width="1"/>
<polygon points="300.0,216.0 372.7,258.0 372.7,342.0 300.0,384.0 227.3,342.0 227.3,258.0" fill="none" stroke="#e3e3e3" stroke-width="1"/>
<polygon points="300.0,174.0 409.1,237.0 409.1,363.0 300.0,426.0 190.9,363.0 190.9,237.0" fill="none" stroke="#e3e3e3" stroke-width="1"/>
<polygon points="300.0,132.0 445.5,216.0 445.5,384.0 300.0,468.0 154.5,384.0 154.5,216.0" fill="none" stroke="#e3e3e3" stroke-width="1"/>
<polygon points="300.0,90.0 481.9,195.0 481.9,405.0 300.0,510.0 118.1,405.0 118.1,195.0" fill="none" stroke="#e3e3e3" stroke-width="1"/>
<line x1="300" y1="300" x2="300.0" y2="90.0" stroke="#d0d0d0" stroke-width="1"/>
<text x="300.0" y="76.0" text-anchor="middle" font-size="12.5" font-weight="600" fill="#333">Substrate Switch</text>
<line x1="300" y1="300" x2="481.9" y2="195.0" stroke="#d0d0d0" stroke-width="1"/>
<text x="497.5" y="190.0" text-anchor="start" font-size="12.5" font-weight="600" fill="#333">Fault Healing</text>
<line x1="300" y1="300" x2="481.9" y2="405.0" stroke="#d0d0d0" stroke-width="1"/>
<text x="497.5" y="418.0" text-anchor="start" font-size="12.5" font-weight="600" fill="#333">AI-Proposal Safety</text>
<line x1="300" y1="300" x2="300.0" y2="510.0" stroke="#d0d0d0" stroke-width="1"/>
<text x="300.0" y="532.0" text-anchor="middle" font-size="12.5" font-weight="600" fill="#333">Tri-logic Ambiguity</text>
<line x1="300" y1="300" x2="118.1" y2="405.0" stroke="#d0d0d0" stroke-width="1"/>
<text x="102.5" y="418.0" text-anchor="end" font-size="12.5" font-weight="600" fill="#333">Verified Approx.</text>
<line x1="300" y1="300" x2="118.1" y2="195.0" stroke="#d0d0d0" stroke-width="1"/>
<text x="102.5" y="190.0" text-anchor="end" font-size="12.5" font-weight="600" fill="#333">Degrade-only</text>
<polygon points="300.0,111.0 427.3,226.5 463.7,394.5 300.0,510.0 154.5,384.0 136.3,205.5" fill="#e8590c" fill-opacity="0.14" stroke="#e8590c" stroke-width="2.5" stroke-linejoin="round"/>
<circle cx="300.0" cy="111.0" r="3" fill="#e8590c"/>
<circle cx="427.3" cy="226.5" r="3" fill="#e8590c"/>
<circle cx="463.7" cy="394.5" r="3" fill="#e8590c"/>
<circle cx="300.0" cy="510.0" r="3" fill="#e8590c"/>
<circle cx="154.5" cy="384.0" r="3" fill="#e8590c"/>
<circle cx="136.3" cy="205.5" r="3" fill="#e8590c"/>
<polygon points="300.0,279.0 336.4,279.0 318.2,310.5 300.0,321.0 263.6,321.0 281.8,289.5" fill="#3572a5" fill-opacity="0.14" stroke="#3572a5" stroke-width="2.5" stroke-linejoin="round"/>
<circle cx="300.0" cy="279.0" r="3" fill="#3572a5"/>
<circle cx="336.4" cy="279.0" r="3" fill="#3572a5"/>
<circle cx="318.2" cy="310.5" r="3" fill="#3572a5"/>
<circle cx="300.0" cy="321.0" r="3" fill="#3572a5"/>
<circle cx="263.6" cy="321.0" r="3" fill="#3572a5"/>
<circle cx="281.8" cy="289.5" r="3" fill="#3572a5"/>
<polygon points="300.0,279.0 354.6,268.5 318.2,310.5 300.0,321.0 263.6,321.0 263.6,279.0" fill="#b7410e" fill-opacity="0.14" stroke="#b7410e" stroke-width="2.5" stroke-linejoin="round"/>
<circle cx="300.0" cy="279.0" r="3" fill="#b7410e"/>
<circle cx="354.6" cy="268.5" r="3" fill="#b7410e"/>
<circle cx="318.2" cy="310.5" r="3" fill="#b7410e"/>
<circle cx="300.0" cy="321.0" r="3" fill="#b7410e"/>
<circle cx="263.6" cy="321.0" r="3" fill="#b7410e"/>
<circle cx="263.6" cy="279.0" r="3" fill="#b7410e"/>
<polygon points="300.0,279.0 336.4,279.0 318.2,310.5 300.0,321.0 263.6,321.0 281.8,289.5" fill="#6f42c1" fill-opacity="0.14" stroke="#6f42c1" stroke-width="2.5" stroke-linejoin="round"/>
<circle cx="300.0" cy="279.0" r="3" fill="#6f42c1"/>
<circle cx="336.4" cy="279.0" r="3" fill="#6f42c1"/>
<circle cx="318.2" cy="310.5" r="3" fill="#6f42c1"/>
<circle cx="300.0" cy="321.0" r="3" fill="#6f42c1"/>
<circle cx="263.6" cy="321.0" r="3" fill="#6f42c1"/>
<circle cx="281.8" cy="289.5" r="3" fill="#6f42c1"/>
<text x="600" y="98" text-anchor="middle" font-size="12" font-weight="700" fill="#888">LEGEND</text>
<rect x="556" y="110" width="16" height="6" rx="2" fill="#e8590c"/>
<text x="578" y="116" font-size="13" font-weight="700" fill="#1a1a1a">LogicN</text>
<rect x="556" y="134" width="16" height="6" rx="2" fill="#3572a5"/>
<text x="578" y="140" font-size="13" font-weight="500" fill="#1a1a1a">Python</text>
<rect x="556" y="158" width="16" height="6" rx="2" fill="#b7410e"/>
<text x="578" y="164" font-size="13" font-weight="500" fill="#1a1a1a">Rust</text>
<rect x="556" y="182" width="16" height="6" rx="2" fill="#6f42c1"/>
<text x="578" y="188" font-size="13" font-weight="500" fill="#1a1a1a">C++</text>
<text x="300" y="546" text-anchor="middle" font-size="11" fill="#aaa">0 (center) → 10 (edge) · LogicN vs mainstream languages</text>
</svg>